<svg width="16" height="16" viewBox="0 0 16 16" fill="none" xmlns="http://www.w3.org/2000/svg">
<circle cx="8" cy="8" r="8" fill="#FFAE50"/>
<path fill-rule="evenodd" clip-rule="evenodd" d="M9.04984 5.00796C9.04984 5.43822 8.76916 5.80548 8.37408 5.95012C8.52086 6.68051 8.96733 8.3495 9.99445 8.43504C10.8464 8.50601 11.546 7.4415 11.9151 6.731C11.6469 6.59639 11.4638 6.32668 11.4638 6.01593C11.4638 5.57056 11.8397 5.20956 12.3035 5.20956C12.7672 5.20956 13.1431 5.57056 13.1431 6.01593C13.1431 6.43875 12.8043 6.78549 12.3732 6.81954L11.5688 10.8542H4.43177L3.62732 6.81954C3.19622 6.78549 2.85742 6.43875 2.85742 6.01593C2.85742 5.57056 3.23333 5.20956 3.69707 5.20956C4.16082 5.20956 4.53672 5.57056 4.53672 6.01593C4.53672 6.32668 4.35366 6.59639 4.08548 6.731C4.45452 7.4415 5.15416 8.50601 6.00611 8.43504C7.03323 8.3495 7.4797 6.68051 7.62647 5.95012C7.2314 5.80548 6.95072 5.43822 6.95072 5.00796C6.95072 4.45127 7.42061 4 8.00028 4C8.57995 4 9.04984 4.45127 9.04984 5.00796Z" fill="white"/>
<path d="M4.53672 11.5635C4.24691 11.5635 4.01194 11.7891 4.01194 12.0674C4.01194 12.3458 4.24691 12.5714 4.53672 12.5714H11.4638C11.7536 12.5714 11.9886 12.3458 11.9886 12.0674C11.9886 11.7891 11.7536 11.5635 11.4638 11.5635H4.53672Z" fill="white"/>
</svg>
