<svg width="20" height="20" viewBox="0 0 20 20" fill="none" xmlns="http://www.w3.org/2000/svg">
    <circle cx="10" cy="10" r="10" fill="white"/>
    <path d="M11.2165 19.9268C16.1651 19.3266 19.9992 15.1119 20 10.0016C19.9992 4.53904 15.619 0.0974404 10.1797 0.00158143C10.1199 0.000528786 10.06 1.76006e-07 10 0C4.47822 1.62028e-05 0.00162142 4.47828 0 10.003C0.00145456 14.9563 3.60421 19.0678 8.33225 19.8616V12.0935H5.91994V9.29807H8.33225V7.2368C8.33225 4.84514 9.79213 3.54183 11.9247 3.54183C12.9461 3.54183 13.8238 3.61798 14.0786 3.65152V6.15144L12.5995 6.15216C11.44 6.15216 11.2165 6.70337 11.2165 7.51253V9.29663H13.9832L13.6223 12.0921H11.2165V19.9268Z" fill="#3B5998"/>
</svg>
