<svg width="8" height="8" viewBox="0 0 8 8" fill="none" xmlns="http://www.w3.org/2000/svg">
<path d="M0.148497 1.10898C0.101851 1.05311 0.0587024 0.993132 0.0355038 0.924143C-0.114335 0.478549 0.227494 0 0.733841 0C0.964526 0 1.18175 0.104952 1.32016 0.283282L4.42874 4L1.32016 7.71672C1.18175 7.89505 0.964526 8 0.733842 8C0.227494 8 -0.114335 7.52145 0.035504 7.07586C0.0587026 7.00687 0.101852 6.94689 0.148497 6.89102L2.56207 4L0.148497 1.10898Z" fill="#3289EF"/>
<path d="M3.71976 1.10898C3.67311 1.05311 3.62997 0.993132 3.60677 0.924143C3.45693 0.478549 3.79876 0 4.3051 0C4.53579 0 4.75301 0.104952 4.89142 0.283282L8 4L4.89142 7.71672C4.75301 7.89505 4.53579 8 4.3051 8C3.79876 8 3.45693 7.52145 3.60677 7.07586C3.62997 7.00687 3.67311 6.94689 3.71976 6.89102L6.13333 4L3.71976 1.10898Z" fill="#3289EF"/>
</svg>
