<svg width="26" height="24" viewBox="0 0 26 24" fill="none" xmlns="http://www.w3.org/2000/svg">
<path fill-rule="evenodd" clip-rule="evenodd" d="M15 12C12.8202 12 10.9637 13.3955 10.2802 15.3448L10.036 16.0412L9.29855 16.0132C9.27884 16.0125 9.23736 16.0105 9.19359 16.0085C9.16966 16.0074 9.14505 16.0062 9.12293 16.0052C9.08803 16.0036 9.05517 16.0022 9.02873 16.0012C9.00504 16.0002 8.99569 16 8.99569 16C8.99569 16 8.99724 16 9 16C7.34315 16 6 17.3431 6 19C6 20.6569 7.34315 22 9 22H21C22.6569 22 24 20.6569 24 19C24 17.3431 22.6569 16 21 16C20.9143 16 20.8298 16.0036 20.7466 16.0105L19.9758 16.0747L19.7198 15.3448C19.0363 13.3955 17.1798 12 15 12ZM8.66879 14.0108C9.78957 11.641 12.2021 10 15 10C17.7979 10 20.2104 11.641 21.3312 14.0108C23.9382 14.1813 26 16.3499 26 19C26 21.7614 23.7614 24 21 24H9C6.23858 24 4 21.7614 4 19C4 16.3499 6.06178 14.1813 8.66879 14.0108Z" fill="#D0D7DA"/>
<path fill-rule="evenodd" clip-rule="evenodd" d="M6.00044 10C6.00044 8.34315 7.34359 7 9.00044 7C10.5191 7 11.7743 8.12847 11.973 9.59264C12.5858 9.34192 13.2366 9.16501 13.9147 9.07303C13.48 6.75451 11.4451 5 9.00044 5C6.23902 5 4.00044 7.23858 4.00044 10C4.00044 11.5704 4.72446 12.9718 5.8569 13.8884C6.50802 13.4871 7.24162 13.2068 8.02637 13.0787C8.06476 13.0105 8.10412 12.943 8.14444 12.8761C6.90465 12.5077 6.00044 11.3594 6.00044 10Z" fill="#FFAE50"/>
<path fill-rule="evenodd" clip-rule="evenodd" d="M9.00044 0C9.55273 0 10.0004 0.447715 10.0004 1V3C10.0004 3.55228 9.55273 4 9.00044 4C8.44816 4 8.00044 3.55228 8.00044 3V1C8.00044 0.447715 8.44816 0 9.00044 0Z" fill="#FFAE50"/>
<path fill-rule="evenodd" clip-rule="evenodd" d="M0.340196 5C0.616339 4.52171 1.22793 4.35783 1.70622 4.63398L3.43827 5.63398C3.91657 5.91012 4.08044 6.52171 3.8043 7C3.52816 7.47829 2.91657 7.64217 2.43827 7.36603L0.706222 6.36603C0.227929 6.08989 0.0640539 5.47829 0.340196 5Z" fill="#FFAE50"/>
<path fill-rule="evenodd" clip-rule="evenodd" d="M17.6607 5C17.9368 5.47829 17.773 6.08988 17.2947 6.36602L15.5626 7.36602C15.0843 7.64217 14.4727 7.47829 14.1966 7C13.9204 6.52171 14.0843 5.91011 14.5626 5.63397L16.2947 4.63397C16.773 4.35783 17.3846 4.52171 17.6607 5Z" fill="#FFAE50"/>
<path fill-rule="evenodd" clip-rule="evenodd" d="M3.80431 13C4.08045 13.4783 3.91657 14.0899 3.43828 14.366L1.70623 15.366C1.22794 15.6422 0.616348 15.4783 0.340206 15C0.0640634 14.5217 0.227939 13.9101 0.706231 13.634L2.43828 12.634C2.91657 12.3578 3.52817 12.5217 3.80431 13Z" fill="#FFAE50"/>
</svg>
