<svg width="20" height="20" viewBox="0 0 20 20" fill="none" xmlns="http://www.w3.org/2000/svg">
    <path d="M10 20C15.5228 20 20 15.5228 20 10C20 4.47715 15.5228 0 10 0C4.47715 0 0 4.47715 0 10C0 15.5228 4.47715 20 10 20Z" fill="#55ACEE"/>
    <path d="M16.1253 7.18669C15.6968 7.37672 15.2358 7.50524 14.7523 7.56264C15.2459 7.26691 15.6247 6.79898 15.8035 6.24049C15.3417 6.51447 14.8299 6.71323 14.2857 6.82037C13.8496 6.356 13.2284 6.0658 12.5405 6.0658C11.2207 6.0658 10.1502 7.13624 10.1502 8.45608C10.1502 8.64343 10.1714 8.82579 10.2124 9.00084C8.2259 8.90119 6.46452 7.94964 5.28551 6.50307C5.0798 6.85602 4.96179 7.26691 4.96179 7.70489C4.96179 8.53398 5.38409 9.26591 6.02511 9.69445C5.63347 9.68215 5.26466 9.57466 4.94254 9.39515C4.94236 9.40531 4.94236 9.41547 4.94236 9.42545C4.94236 10.5836 5.76663 11.5496 6.8599 11.769C6.65954 11.8239 6.44794 11.853 6.23029 11.853C6.07591 11.853 5.92635 11.8382 5.78054 11.8104C6.08465 12.7598 6.96721 13.4509 8.01342 13.4703C7.19521 14.1115 6.16469 14.4935 5.0445 14.4935C4.85198 14.4935 4.66125 14.4823 4.47461 14.46C5.53187 15.1385 6.7886 15.534 8.13838 15.534C12.535 15.534 14.9393 11.8919 14.9393 8.73291C14.9393 8.62935 14.937 8.52613 14.9324 8.42381C15.3998 8.0869 15.805 7.66603 16.1253 7.18669Z" fill="#F1F2F2"/>
</svg>
