<svg width="20" height="20" viewBox="0 0 20 20" fill="none" xmlns="http://www.w3.org/2000/svg">
    <path d="M10 20C15.5228 20 20 15.5228 20 10C20 4.47715 15.5228 0 10 0C4.47715 0 0 4.47715 0 10C0 15.5228 4.47715 20 10 20Z" fill="#4D76A1"/>
    <path fill-rule="evenodd" clip-rule="evenodd" d="M9.62213 14.3859H10.407C10.407 14.3859 10.6441 14.3599 10.7651 14.2294C10.8765 14.1096 10.873 13.8847 10.873 13.8847C10.873 13.8847 10.8576 12.8315 11.3464 12.6764C11.8283 12.5237 12.447 13.6943 13.1028 14.1444C13.5987 14.485 13.9756 14.4104 13.9756 14.4104L15.7291 14.3859C15.7291 14.3859 16.6464 14.3294 16.2115 13.6082C16.1758 13.5492 15.9582 13.0747 14.9077 12.0996C13.8082 11.079 13.9554 11.2441 15.2799 9.47881C16.0865 8.40373 16.409 7.74737 16.3083 7.46626C16.2122 7.19851 15.619 7.26928 15.619 7.26928L13.6446 7.28158C13.6446 7.28158 13.4982 7.26162 13.3896 7.3265C13.2836 7.39014 13.2153 7.53845 13.2153 7.53845C13.2153 7.53845 12.9028 8.37039 12.486 9.0779C11.6069 10.5708 11.2553 10.6496 11.1117 10.5569C10.7774 10.3409 10.8609 9.68898 10.8609 9.22586C10.8609 7.7791 11.0803 7.17587 10.4336 7.01972C10.2189 6.96785 10.061 6.93362 9.51214 6.92809C8.80766 6.92079 8.21139 6.93023 7.87376 7.09566C7.64916 7.20564 7.47589 7.45075 7.58142 7.46483C7.7119 7.4823 8.00746 7.54452 8.16415 7.75789C8.36647 8.03312 8.35934 8.65133 8.35934 8.65133C8.35934 8.65133 8.47557 10.3544 8.08785 10.566C7.82171 10.7111 7.45663 10.4148 6.67283 9.06043C6.27121 8.36665 5.96799 7.59978 5.96799 7.59978C5.96799 7.59978 5.90952 7.45645 5.80524 7.3798C5.67867 7.28693 5.50184 7.25734 5.50184 7.25734L3.62566 7.26964C3.62566 7.26964 3.34401 7.27748 3.24062 7.39995C3.14864 7.50886 3.23331 7.73418 3.23331 7.73418C3.23331 7.73418 4.70217 11.1707 6.36533 12.9025C7.89034 14.4902 9.62213 14.3859 9.62213 14.3859Z" fill="white"/>
</svg>
