<svg width="15" height="11" viewBox="0 0 15 11" fill="none" xmlns="http://www.w3.org/2000/svg">
    <path d="M4.89511 5.14412L6.43357 0H2.97203L0.944056 4.65882C0.13986 6.43823 0 7.05294 0 7.89412C0 9.73824 1.43357 11 3.39161 11C5.31469 11 6.74825 9.77059 6.74825 7.89412C6.74825 6.56765 6.04895 5.59706 4.89511 5.14412ZM13.1469 5.14412L14.6853 0H11.2238L9.1958 4.65882C8.39161 6.43823 8.25175 7.05294 8.25175 7.89412C8.25175 9.73824 9.68532 11 11.6434 11C13.5664 11 15 9.77059 15 7.89412C15 6.56765 14.3007 5.59706 13.1469 5.14412Z" fill="#F6F7F8"/>
</svg>
