<svg width="38" height="38" viewBox="0 0 38 38" fill="none" xmlns="http://www.w3.org/2000/svg">
<path d="M13.046 24.852H7.018V22.602H8.862V14.844H8.502L7 15.5V12.926L8.502 12.252H11.454V22.602H13.046V24.852Z" fill="#8C979B"/>
<path fill-rule="evenodd" clip-rule="evenodd" d="M21.2841 18.354V17.994C21.9141 17.652 22.7781 16.824 22.7781 15.384C22.7781 13.494 21.1221 12 18.3321 12C15.5421 12 13.8861 13.494 13.8861 15.384C13.8861 16.842 14.7321 17.652 15.3801 17.994V18.354C14.5521 18.678 13.4721 19.65 13.4721 21.306C13.4721 23.34 15.1641 25.086 18.3321 25.086C21.5001 25.086 23.1921 23.34 23.1921 21.306C23.1921 19.65 22.1121 18.678 21.2841 18.354ZM18.3321 13.998C19.5201 13.998 20.2761 14.718 20.2761 15.654C20.2761 16.626 19.5201 17.328 18.3321 17.328C17.1621 17.328 16.3881 16.626 16.3881 15.654C16.3881 14.718 17.1621 13.998 18.3321 13.998ZM18.3321 22.926C16.8021 22.926 16.0461 22.08 16.0461 21.054C16.0461 20.046 16.8021 19.182 18.3321 19.182C19.8441 19.182 20.6181 20.046 20.6181 21.054C20.6181 22.08 19.8441 22.926 18.3321 22.926Z" fill="#8C979B"/>
<path fill-rule="evenodd" clip-rule="evenodd" d="M38 19C38 29.4934 29.4934 38 19 38C8.50659 38 0 29.4934 0 19C0 8.50659 8.50659 0 19 0C29.4934 0 38 8.50659 38 19ZM35.9711 20C35.4535 28.9234 28.0531 36 19 36C9.61116 36 2 28.3888 2 19C2 9.61116 9.61116 2 19 2C28.0531 2 35.4535 9.07662 35.9711 18H32V15C32 14.4477 31.5523 14 31 14C30.4477 14 30 14.4477 30 15V18H27C26.4477 18 26 18.4477 26 19C26 19.5523 26.4477 20 27 20H30V23C30 23.5523 30.4477 24 31 24C31.5523 24 32 23.5523 32 23V20H35.9711Z" fill="#8C979B"/>
</svg>
