<svg width="123" height="31" viewBox="0 0 123 31" fill="none" xmlns="http://www.w3.org/2000/svg">
<path d="M7.742 24.976C7.49 26.026 6.664 26.656 5.432 26.656C3.374 26.656 2.436 24.99 2.436 23.002C2.436 21.014 3.388 19.348 5.446 19.348C6.622 19.348 7.322 19.838 7.63 20.776H9.394C9.03 18.998 7.56 17.822 5.446 17.822C2.436 17.822 0.728 19.992 0.728 23.002C0.728 26.012 2.422 28.182 5.432 28.182C7.7 28.182 9.156 26.866 9.506 24.976H7.742ZM15.7155 28H17.1995V23.268C17.1995 21.504 15.9675 20.692 14.1195 20.692C12.4395 20.692 11.2495 21.504 11.1795 22.848H12.7475C12.8035 22.302 13.2655 21.938 14.1755 21.938C15.2115 21.938 15.6735 22.456 15.6735 23.24V23.45H13.5735C11.5155 23.45 10.7455 24.71 10.7455 25.844C10.7455 27.076 11.6695 28.182 13.3215 28.182C14.3015 28.182 15.0155 27.846 15.4355 27.314H15.7155V28ZM13.7835 26.894C12.8735 26.894 12.3415 26.488 12.3415 25.774C12.3415 25.046 12.8595 24.626 13.8535 24.626H15.6735V25.158C15.6735 26.124 14.8475 26.894 13.7835 26.894ZM25.8973 28V20.874H24.3153V23.674H20.8713V20.874H19.2893V28H20.8713V25.018H24.3153V28H25.8973ZM33.0083 28H34.6743L32.7563 24.304L34.5763 20.874H32.9523L31.4543 23.674H29.6623V20.874H28.0803V28H29.6623V25.018H31.4263L33.0083 28ZM35.6114 22.218H38.0194V28H39.6014V22.218H41.9954V20.874H35.6114V22.218ZM47.1142 24.78V23.394H43.0822V24.78H47.1142ZM49.0012 18.004V28H50.6812V19.53H55.5672V28H57.2472V18.004H49.0012ZM65.9513 24.038C65.9233 22.19 64.7613 20.692 62.6333 20.692C60.4493 20.692 59.1193 22.148 59.1193 24.388C59.1193 26.614 60.4353 28.182 62.6753 28.182C64.5233 28.182 65.5873 27.244 65.8533 25.928H64.2433C64.0473 26.502 63.5433 26.838 62.6893 26.838C61.4013 26.838 60.7293 26.026 60.6873 24.57H65.9513V24.038ZM62.6193 21.952C63.6553 21.952 64.2293 22.596 64.3273 23.394H60.7573C60.9393 22.582 61.5133 21.952 62.6193 21.952ZM66.797 22.218H69.205V28H70.787V22.218H73.181V20.874H66.797V22.218ZM81.0313 24.038C81.0033 22.19 79.8413 20.692 77.7133 20.692C75.5293 20.692 74.1993 22.148 74.1993 24.388C74.1993 26.614 75.5153 28.182 77.7553 28.182C79.6033 28.182 80.6673 27.244 80.9333 25.928H79.3233C79.1273 26.502 78.6233 26.838 77.7693 26.838C76.4813 26.838 75.8093 26.026 75.7673 24.57H81.0313V24.038ZM77.6993 21.952C78.7353 21.952 79.3093 22.596 79.4073 23.394H75.8373C76.0193 22.582 76.5933 21.952 77.6993 21.952ZM86.6595 28.182C88.6055 28.182 89.8235 26.6 89.8235 24.444C89.8235 22.288 88.6195 20.692 86.6595 20.692C85.6095 20.692 84.9935 21.084 84.6015 21.574H84.3215V20.874H82.7815V30.8H84.3635V27.3H84.6435C85.0215 27.804 85.6235 28.182 86.6595 28.182ZM86.2955 22.036C87.5975 22.036 88.2415 23.058 88.2415 24.444C88.2415 25.816 87.5975 26.838 86.2955 26.838C84.9095 26.838 84.3215 25.69 84.3215 24.444C84.3215 23.184 84.9095 22.036 86.2955 22.036ZM94.7921 26.838C93.3921 26.838 92.7481 25.816 92.7481 24.654C92.7481 23.478 93.3921 22.456 94.7921 22.456C96.1781 22.456 96.8361 23.478 96.8361 24.654C96.8361 25.816 96.1781 26.838 94.7921 26.838ZM95.1141 21.112C94.1341 21.112 93.3641 21.378 92.8181 22.134H92.5521C92.7061 21.056 93.0841 20.23 94.2881 20.02C94.7081 19.936 96.1921 19.712 96.4861 19.656C97.7741 19.39 97.9421 18.662 97.9701 17.822H96.5421C96.5001 18.186 96.3041 18.298 95.7581 18.382C95.7581 18.382 94.3301 18.606 93.9801 18.676C91.5721 19.138 91.1661 21.406 91.1661 23.842C91.1661 26.67 92.5801 28.182 94.8201 28.182C97.0321 28.182 98.4181 26.712 98.4181 24.598C98.4181 22.526 97.1161 21.112 95.1141 21.112ZM102.25 30.8L106.562 20.874H104.896L103.09 25.172H102.726L100.738 20.874H99.0583L102.082 27.3L100.612 30.8H102.25ZM111.72 28.182C113.666 28.182 114.884 26.6 114.884 24.444C114.884 22.288 113.68 20.692 111.72 20.692C110.67 20.692 110.054 21.084 109.662 21.574H109.382V20.874H107.842V30.8H109.424V27.3H109.704C110.082 27.804 110.684 28.182 111.72 28.182ZM111.356 22.036C112.658 22.036 113.302 23.058 113.302 24.444C113.302 25.816 112.658 26.838 111.356 26.838C109.97 26.838 109.382 25.69 109.382 24.444C109.382 23.184 109.97 22.036 111.356 22.036ZM116.647 28H118.229V22.218H122.205V20.874H116.647V28Z" fill="#3289EF"/>
<path d="M5.79 3.68V2.86H0.91V10H1.81V3.68H5.79ZM7.54078 4.83C5.96078 4.83 5.06078 5.98 5.06078 7.48C5.06078 8.98 5.96078 10.13 7.54078 10.13C9.11078 10.13 10.0208 8.98 10.0208 7.48C10.0208 5.98 9.11078 4.83 7.54078 4.83ZM7.54078 9.39C6.42078 9.39 5.91078 8.47 5.91078 7.48C5.91078 6.5 6.42078 5.57 7.54078 5.57C8.65078 5.57 9.17078 6.5 9.17078 7.48C9.17078 8.47 8.65078 9.39 7.54078 9.39ZM12.1973 12V9.45H12.3973C12.6773 9.81 13.1373 10.13 13.9273 10.13C15.3273 10.13 16.1673 8.99 16.1673 7.48C16.1673 5.98 15.3273 4.83 13.9273 4.83C13.1373 4.83 12.6473 5.16 12.3673 5.51H12.1673V4.96H11.3473V12H12.1973ZM13.7673 5.57C14.7873 5.57 15.3173 6.36 15.3173 7.48C15.3173 8.6 14.7873 9.39 13.7673 9.39C12.6473 9.39 12.1873 8.47 12.1873 7.48C12.1873 6.5 12.6473 5.57 13.7673 5.57ZM19.6697 4.83C18.0897 4.83 17.1897 5.98 17.1897 7.48C17.1897 8.98 18.0897 10.13 19.6697 10.13C21.2397 10.13 22.1497 8.98 22.1497 7.48C22.1497 5.98 21.2397 4.83 19.6697 4.83ZM19.6697 9.39C18.5497 9.39 18.0397 8.47 18.0397 7.48C18.0397 6.5 18.5497 5.57 19.6697 5.57C20.7797 5.57 21.2997 6.5 21.2997 7.48C21.2997 8.47 20.7797 9.39 19.6697 9.39ZM27.9663 9.26V4.96H24.1863V6.34C24.1863 7.59 23.8663 8.59 23.5463 9.26H22.8763V11.43H23.7063V10H28.0663V11.43H28.8963V9.26H27.9663ZM27.1163 9.26H24.4063C24.7163 8.59 24.9763 7.6 24.9763 6.34V5.7H27.1163V9.26ZM33.4097 8.48C33.2797 9.04 32.8597 9.39 32.1397 9.39C31.0097 9.39 30.5397 8.48 30.5397 7.46C30.5397 6.45 30.9997 5.57 32.1397 5.57C32.8297 5.57 33.2197 5.91 33.3797 6.42H34.2297C34.0597 5.49 33.3297 4.83 32.1397 4.83C30.5697 4.83 29.6897 5.97 29.6897 7.48C29.6897 8.98 30.5697 10.13 32.1397 10.13C33.3097 10.13 34.0797 9.46 34.2597 8.48H33.4097ZM39.007 10H39.917L38.567 7.39L39.847 4.96H38.957L37.857 7.04H36.377V4.96H35.527V10H36.377V7.78H37.837L39.007 10ZM43.2927 4.83C41.7127 4.83 40.8127 5.98 40.8127 7.48C40.8127 8.98 41.7127 10.13 43.2927 10.13C44.8627 10.13 45.7727 8.98 45.7727 7.48C45.7727 5.98 44.8627 4.83 43.2927 4.83ZM43.2927 9.39C42.1727 9.39 41.6627 8.47 41.6627 7.48C41.6627 6.5 42.1727 5.57 43.2927 5.57C44.4027 5.57 44.9227 6.5 44.9227 7.48C44.9227 8.47 44.4027 9.39 43.2927 9.39ZM48.2793 10L50.5693 6.1H50.7693V10H51.5993V4.96H50.3793L48.1293 8.86H47.9293V4.96H47.0993V10H48.2793ZM50.1993 2.76C50.1793 3.27 49.9393 3.61 49.3293 3.61C48.7493 3.61 48.4793 3.27 48.4693 2.76H47.7793C47.7993 3.69 48.3893 4.22 49.3293 4.22C50.2793 4.22 50.8693 3.69 50.8893 2.76H50.1993ZM60.4751 10V4.96H56.0251V10H56.8751V5.7H59.6251V10H60.4751ZM64.2888 4.83C62.7088 4.83 61.8088 5.98 61.8088 7.48C61.8088 8.98 62.7088 10.13 64.2888 10.13C65.8588 10.13 66.7688 8.98 66.7688 7.48C66.7688 5.98 65.8588 4.83 64.2888 4.83ZM64.2888 9.39C63.1688 9.39 62.6588 8.47 62.6588 7.48C62.6588 6.5 63.1688 5.57 64.2888 5.57C65.3988 5.57 65.9188 6.5 65.9188 7.48C65.9188 8.47 65.3988 9.39 64.2888 9.39ZM68.9454 12V9.45H69.1454C69.4254 9.81 69.8854 10.13 70.6754 10.13C72.0754 10.13 72.9154 8.99 72.9154 7.48C72.9154 5.98 72.0754 4.83 70.6754 4.83C69.8854 4.83 69.3954 5.16 69.1154 5.51H68.9154V4.96H68.0954V12H68.9454ZM70.5154 5.57C71.5354 5.57 72.0654 6.36 72.0654 7.48C72.0654 8.6 71.5354 9.39 70.5154 9.39C69.3954 9.39 68.9354 8.47 68.9354 7.48C68.9354 6.5 69.3954 5.57 70.5154 5.57ZM73.6301 5.7H75.3801V10H76.2301V5.7H77.9701V4.96H73.6301V5.7ZM82.3015 10H83.1015V6.57C83.1015 5.44 82.2815 4.83 81.0215 4.83C79.8915 4.83 79.0815 5.37 79.0215 6.3H79.8715C79.9115 5.86 80.3015 5.57 81.0415 5.57C81.9115 5.57 82.2715 6.01 82.2715 6.62V6.82H80.6315C79.2215 6.82 78.7015 7.68 78.7015 8.49C78.7015 9.35 79.3515 10.13 80.5215 10.13C81.2415 10.13 81.7915 9.85 82.1015 9.46H82.3015V10ZM80.7215 9.39C79.9815 9.39 79.5515 9.04 79.5515 8.47C79.5515 7.88 79.9415 7.53 80.7615 7.53H82.2715V7.98C82.2715 8.77 81.5715 9.39 80.7215 9.39ZM84.0879 10H84.2579C85.4979 10 86.0379 9.25 86.0379 6.93V5.7H88.2479V10H89.1079V4.96H85.2479V6.91C85.2479 8.7 84.9479 9.2 84.2579 9.2H84.0879V10Z" fill="#D0D7DA"/>
</svg>
