<svg width="18" height="18" viewBox="0 0 18 18" fill="none" xmlns="http://www.w3.org/2000/svg">
<path fill-rule="evenodd" clip-rule="evenodd" d="M9 2C5.13401 2 2 5.13401 2 9C2 12.866 5.13401 16 9 16C12.866 16 16 12.866 16 9C16 5.13401 12.866 2 9 2ZM0 9C0 4.02944 4.02944 0 9 0C13.9706 0 18 4.02944 18 9C18 13.9706 13.9706 18 9 18C4.02944 18 0 13.9706 0 9Z" fill="#3289EF"/>
<path fill-rule="evenodd" clip-rule="evenodd" d="M4.07451 12.4272C4.11683 12.3975 4.15956 12.3683 4.20266 12.3395C4.70371 12.0055 5.27113 11.7267 5.88658 11.5115C5.33206 10.825 5 9.95126 5 9C5 6.79086 6.79086 5 9 5C11.2091 5 13 6.79086 13 9C13 9.95126 12.6679 10.825 12.1134 11.5115C12.7289 11.7267 13.2963 12.0055 13.7973 12.3395C13.8404 12.3683 13.8832 12.3975 13.9255 12.4272C13.5338 12.9892 13.0483 13.4809 12.4918 13.8798C11.6037 13.3488 10.3822 13 9 13C7.61779 13 6.39629 13.3488 5.50816 13.8798C4.95167 13.4809 4.46624 12.9892 4.07451 12.4272ZM7 9C7 7.89543 7.89543 7 9 7C10.1046 7 11 7.89543 11 9C11 10.1046 10.1046 11 9 11C7.89543 11 7 10.1046 7 9Z" fill="#3289EF"/>
</svg>
